<svg width="24" height="26" viewBox="0 0 24 26" fill="none" xmlns="http://www.w3.org/2000/svg">
<path d="M10.6667 0.666992V2.13574C8.06524 2.66972 6.00273 4.73223 5.46875 7.33366H4V10.0003H6.66667C6.66667 12.9301 9.07022 15.3337 12 15.3337C14.9298 15.3337 17.3333 12.9301 17.3333 10.0003H20V7.33366H18.5312C17.9973 4.73223 15.9348 2.66972 13.3333 2.13574V0.666992H10.6667ZM12 4.66699C13.7531 4.66699 15.2117 5.77756 15.7578 7.33366H8.24219C8.78831 5.77756 10.2469 4.66699 12 4.66699ZM9.33333 10.0003H14.6667C14.6667 11.4892 13.4889 12.667 12 12.667C10.5111 12.667 9.33333 11.4892 9.33333 10.0003ZM12 16.667C9.6734 16.667 6.91622 17.2134 4.59896 18.1279C3.44033 18.5852 2.39293 19.1284 1.55469 19.8258C0.716447 20.5233 0 21.4662 0 22.667V26.0003H24V24.667V22.667C24 21.4662 23.2836 20.5233 22.4453 19.8258C21.6071 19.1284 20.5597 18.5852 19.401 18.1279C17.0838 17.2134 14.3266 16.667 12 16.667ZM12 19.3337C13.1728 19.3337 14.6065 19.543 16 19.8753V23.3337H8V19.8753C9.39354 19.543 10.8272 19.3337 12 19.3337ZM5.33333 20.7191V23.3337H2.66667V22.667C2.66667 22.5798 2.75678 22.2944 3.26042 21.8753C3.71846 21.4942 4.46691 21.0828 5.33333 20.7191ZM18.6667 20.7191C19.5331 21.0828 20.2815 21.4942 20.7396 21.8753C21.2432 22.2944 21.3333 22.5798 21.3333 22.667V23.3337H18.6667V20.7191Z" fill="black" fill-opacity="0.4"/>
</svg>
