<svg width="21" height="21" viewBox="0 0 21 21" fill="none" xmlns="http://www.w3.org/2000/svg">
<path d="M9 0C6.794 0 5 1.794 5 4C5 6.206 6.794 8 9 8C11.206 8 13 6.206 13 4C13 1.794 11.206 0 9 0ZM9 2C10.103 2 11 2.897 11 4C11 5.103 10.103 6 9 6C7.897 6 7 5.103 7 4C7 2.897 7.897 2 9 2ZM15 10C12.2 10 10 12.2 10 15C10 17.8 12.2 20 15 20C16 20 17.0008 19.6992 17.8008 19.1992L19.5996 21L21 19.5996L19.1992 17.8008C19.6992 17.0008 20 16 20 15C20 12.2 17.8 10 15 10ZM9 11C5.859 11 0 12.546 0 15.5V18H8.68359C8.38759 17.378 8.18108 16.707 8.08008 16H2V15.5C2 14.693 5.19511 13.2314 8.28711 13.0254C8.50111 12.2954 8.83086 11.6178 9.25586 11.0078C9.17086 11.0058 9.081 11 9 11ZM15 12C16.7 12 18 13.3 18 15C18 16.7 16.7 18 15 18C13.3 18 12 16.7 12 15C12 13.3 13.3 12 15 12Z" fill="#112149"/>
</svg>
