<svg width="18" height="18" viewBox="0 0 18 18" fill="none" xmlns="http://www.w3.org/2000/svg">
<path d="M3.66387 2.09069H2.62999L3.27192 2.90114L8.60271 9.6314L8.99388 10.1253L9.386 9.63216L14.7382 2.9019L15.3833 2.09069H14.3468H3.66387ZM6.86875 10.0688L7.26351 9.7619L7.26338 9.76172L7.26283 9.76102L7.26066 9.75823L7.25206 9.74716L7.21827 9.70368L7.08811 9.53619L6.60718 8.91745C6.19988 8.39346 5.63432 7.66598 5.00133 6.85204C3.73571 5.22462 2.20029 3.25127 1.12112 1.86758C0.832038 1.4923 1.09759 0.954102 1.57001 0.954102H16.43C16.9024 0.954102 17.168 1.49233 16.8789 1.86762C15.7995 3.25153 14.2666 5.22503 13.0037 6.85244C12.372 7.66642 11.8078 8.39391 11.4015 8.91792L10.9217 9.53668L10.7919 9.70419L10.7582 9.74767L10.7496 9.75874L10.7475 9.76153L10.7469 9.76223L10.7468 9.76241L11.1419 10.0688L10.7467 9.76247L10.6419 9.89769V10.0688V16.4785C10.6419 16.7899 10.3851 17.0468 10.0736 17.0468H7.93705C7.62563 17.0468 7.36875 16.7899 7.36875 16.4785V10.0688V9.89732L7.26356 9.76196L6.86875 10.0688Z" fill="#355094" stroke="#355094"/>
</svg>
